<svg xmlns="http://www.w3.org/2000/svg" viewBox="0 0 600 480">
<rect width="600" height="480" fill="white"/>
<path d="M 0.00 0.00 L 0.00 479.50 L 599.50 479.50 L 599.50 0.00 Z" fill="#8adfe0" stroke="#8adfe0" stroke-width="0.3" stroke-linejoin="round"/>
<path d="M 323.00 177.50 L 222.50 279.50 L 323.50 279.00 Z" fill="#255b71" stroke="#255b71" stroke-width="0.3" stroke-linejoin="round"/>
<path d="M 311.00 167.00 L 211.25 166.75 L 211.00 267.00 Z" fill="#0b3854" stroke="#0b3854" stroke-width="0.3" stroke-linejoin="round"/>
<path d="M 323.00 178.50 L 223.50 278.50 L 323.00 278.50 Z" fill="#002a48" stroke="#002a48" stroke-width="0.3" stroke-linejoin="round"/>
<path d="M 310.50 167.50 L 211.50 167.50 L 211.50 266.50 Z" fill="#002a48" stroke="#002a48" stroke-width="0.3" stroke-linejoin="round"/>
<path d="M 282.50 134.50 L 282.50 158.00 L 291.00 158.00 L 291.00 143.50 L 293.00 142.00 L 347.23 141.74 L 347.50 197.50 L 332.50 198.50 L 332.50 207.00 L 356.00 207.00 L 356.00 134.50 Z" fill="#002a48" stroke="#002a48" stroke-width="0.3" stroke-linejoin="round"/>
<path d="M 337.00 101.50 L 337.00 125.00 L 345.00 125.00 L 345.00 111.00 L 346.50 110.00 L 378.50 110.00 L 380.50 111.50 L 380.50 143.00 L 365.00 144.50 L 365.00 153.00 L 388.00 153.00 L 388.00 101.50 Z" fill="#002a48" stroke="#002a48" stroke-width="0.3" stroke-linejoin="round"/>
<path d="M 107.50 309.50 L 105.50 312.50 L 103.50 319.50 L 104.50 330.00 L 106.50 334.00 L 109.50 337.00 L 113.50 339.00 L 117.50 339.00 L 119.00 340.00 L 128.00 339.00 L 133.50 336.00 L 136.00 333.00 L 137.00 328.50 L 138.00 327.50 L 138.00 317.50 L 135.00 310.50 L 131.50 307.50 L 126.50 305.50 L 115.50 305.50 L 112.00 306.50 Z" fill="#002a48" stroke="#002a48" stroke-width="0.3" stroke-linejoin="round"/>
<path d="M 192.50 307.50 L 188.50 311.50 L 186.50 316.50 L 186.50 328.50 L 189.50 334.50 L 193.50 338.00 L 196.00 339.00 L 200.00 339.00 L 201.50 340.00 L 210.50 339.00 L 216.00 336.00 L 220.00 329.50 L 220.50 323.50 L 220.00 315.50 L 217.00 310.00 L 214.00 307.50 L 209.00 305.50 L 198.00 305.50 Z" fill="#002a48" stroke="#002a48" stroke-width="0.3" stroke-linejoin="round"/>
<path d="M 467.00 305.50 L 467.00 339.00 L 473.00 339.00 L 473.00 329.00 L 475.00 327.50 L 482.00 328.00 L 488.50 339.00 L 495.00 339.00 L 489.00 329.50 L 489.00 327.00 L 494.00 323.00 L 495.00 320.00 L 495.00 313.00 L 493.00 309.00 L 489.50 306.50 L 485.00 305.50 Z" fill="#002a48" stroke="#002a48" stroke-width="0.3" stroke-linejoin="round"/>
<path d="M 151.50 307.50 L 147.50 311.50 L 145.50 317.00 L 145.50 328.00 L 148.50 334.50 L 152.50 338.00 L 160.50 340.00 L 175.00 337.00 L 179.00 330.50 L 179.00 322.50 L 164.50 322.50 L 164.50 327.50 L 171.50 328.00 L 171.50 331.50 L 166.50 334.50 L 159.00 334.50 L 153.00 330.00 L 152.00 317.50 L 155.50 312.00 L 160.50 310.00 L 168.00 311.00 L 172.50 316.00 L 179.00 316.00 L 176.00 309.50 L 168.00 305.50 L 157.00 305.50 Z" fill="#002a48" stroke="#002a48" stroke-width="0.3" stroke-linejoin="round"/>
<path d="M 393.50 305.50 L 393.50 339.00 L 400.00 339.00 L 400.00 326.00 L 401.50 325.00 L 419.00 325.50 L 419.41 339.20 L 426.04 339.19 L 426.00 305.49 L 419.50 305.49 L 419.50 318.50 L 417.50 320.50 L 401.00 320.00 L 400.00 305.50 Z" fill="#002a48" stroke="#002a48" stroke-width="0.3" stroke-linejoin="round"/>
<path d="M 503.00 305.50 L 503.00 339.00 L 530.00 339.00 L 530.00 334.50 L 511.00 334.50 L 509.00 332.50 L 509.00 326.50 L 511.00 325.00 L 525.00 325.00 L 525.14 320.46 L 510.50 320.00 L 509.00 318.50 L 508.71 311.93 L 530.23 311.05 L 530.22 305.46 Z" fill="#002a48" stroke="#002a48" stroke-width="0.3" stroke-linejoin="round"/>
<path d="M 433.00 305.50 L 433.00 339.00 L 460.00 339.00 L 460.00 334.50 L 441.00 334.50 L 439.00 333.00 L 440.00 325.50 L 454.64 325.04 L 454.50 320.50 L 440.50 320.00 L 439.00 318.50 L 438.71 311.93 L 460.23 311.05 L 460.22 305.46 Z" fill="#002a48" stroke="#002a48" stroke-width="0.3" stroke-linejoin="round"/>
<path d="M 309.50 305.50 L 318.50 320.00 L 318.50 323.00 L 309.00 339.00 L 316.50 339.00 L 322.00 328.50 L 324.00 327.00 L 327.50 330.50 L 331.50 339.00 L 339.50 339.00 L 330.00 323.00 L 330.00 320.00 L 338.50 305.50 L 331.50 305.50 L 326.50 314.00 L 324.00 316.00 L 322.00 315.00 L 317.00 305.50 Z" fill="#002a48" stroke="#002a48" stroke-width="0.3" stroke-linejoin="round"/>
<path d="M 274.50 305.50 L 274.50 339.00 L 301.00 339.00 L 301.00 334.50 L 282.00 334.50 L 280.00 332.50 L 280.00 327.00 L 282.00 325.00 L 296.00 325.00 L 296.14 320.46 L 281.50 320.00 L 280.00 318.50 L 280.00 312.50 L 282.00 311.00 L 301.00 311.00 L 301.00 305.50 Z" fill="#002a48" stroke="#002a48" stroke-width="0.3" stroke-linejoin="round"/>
<path d="M 347.50 305.50 L 347.50 311.00 L 357.00 311.00 L 358.50 312.00 L 358.50 339.00 L 365.00 339.00 L 365.00 312.00 L 366.50 311.00 L 376.00 311.00 L 376.00 305.50 Z" fill="#002a48" stroke="#002a48" stroke-width="0.3" stroke-linejoin="round"/>
<path d="M 238.00 305.50 L 238.00 311.00 L 248.00 311.00 L 249.50 312.00 L 249.50 339.00 L 255.50 339.00 L 255.50 312.00 L 257.00 311.00 L 267.00 311.00 L 267.00 305.50 Z" fill="#002a48" stroke="#002a48" stroke-width="0.3" stroke-linejoin="round"/>
<path d="M 69.50 305.50 L 69.50 339.00 L 96.00 339.00 L 96.00 334.50 L 78.00 334.50 L 76.00 333.00 L 76.00 305.50 Z" fill="#002a48" stroke="#002a48" stroke-width="0.3" stroke-linejoin="round"/>
<path d="M 392.50 358.00 L 392.00 358.50 L 392.00 373.00 L 392.50 373.50 L 393.50 373.00 L 393.50 367.50 L 392.50 367.00 L 392.50 366.00 L 394.00 365.00 L 394.50 365.50 L 398.00 365.50 L 401.00 368.00 L 403.00 373.00 L 404.00 373.50 L 404.50 372.50 L 403.50 371.00 L 403.50 370.00 L 402.50 368.00 L 401.50 367.50 L 402.00 365.00 L 404.00 363.00 L 403.00 362.50 L 403.00 361.50 L 404.00 361.00 L 403.50 359.50 L 401.50 358.00 Z" fill="#184a63" stroke="#184a63" stroke-width="0.3" stroke-linejoin="round"/>
<path d="M 277.00 359.00 L 276.50 361.00 L 275.50 362.50 L 276.00 363.00 L 276.00 364.00 L 274.50 365.00 L 274.50 366.50 L 273.50 368.00 L 273.50 369.00 L 271.50 373.00 L 272.00 372.50 L 272.50 373.00 L 273.50 370.50 L 275.00 369.50 L 281.50 369.50 L 283.00 370.50 L 283.50 372.50 L 284.00 373.00 L 284.50 372.50 L 285.00 373.00 L 284.00 371.50 L 284.00 370.50 L 282.00 366.50 L 282.00 365.00 L 280.50 364.00 L 280.50 363.00 L 281.00 362.50 L 280.00 361.00 L 279.50 359.00 L 279.00 359.50 L 277.50 359.50 Z" fill="#0b3854" stroke="#0b3854" stroke-width="0.3" stroke-linejoin="round"/>
<path d="M 298.50 358.00 L 298.01 372.95 L 299.49 372.95 L 299.50 363.00 L 301.00 362.00 L 304.00 364.50 L 307.50 370.50 L 309.50 368.50 L 311.50 369.50 L 311.50 372.50 L 310.00 373.50 L 311.00 373.53 L 311.49 358.55 L 310.01 358.55 L 310.00 367.00 L 308.00 368.00 L 306.50 367.00 L 306.50 366.00 L 304.00 363.50 L 302.50 360.50 L 301.00 361.50 L 298.00 360.50 L 298.50 358.50 L 300.50 358.50 Z" fill="#184a63" stroke="#184a63" stroke-width="0.3" stroke-linejoin="round"/>
<path d="M 277.50 358.00 L 276.00 360.50 L 275.00 365.50 L 274.00 366.00 L 271.50 373.50 L 272.50 373.50 L 273.50 371.00 L 275.00 370.00 L 281.50 370.00 L 283.00 371.00 L 283.50 373.00 L 285.00 373.50 L 284.00 373.00 L 284.50 371.50 L 283.00 367.50 L 282.50 368.50 L 281.50 369.00 L 281.00 368.50 L 279.50 370.00 L 277.00 370.00 L 275.00 368.00 L 276.50 362.50 L 278.00 361.50 L 280.00 362.50 L 280.00 363.50 L 281.00 364.00 L 281.00 366.00 L 282.50 366.50 L 281.50 365.50 L 281.50 363.50 L 279.50 358.50 Z" fill="#184a63" stroke="#184a63" stroke-width="0.3" stroke-linejoin="round"/>
<path d="M 368.00 358.00 L 367.50 358.50 L 367.50 373.00 L 368.00 373.50 L 378.00 373.50 L 378.50 373.00 L 378.00 373.50 L 369.50 373.50 L 368.00 372.50 L 368.00 371.50 L 369.00 371.00 L 369.00 367.50 L 370.50 366.50 L 377.00 366.50 L 377.00 365.00 L 370.50 365.00 L 369.00 364.00 L 369.50 359.00 L 371.00 358.00 L 378.00 358.00 Z" fill="#184a63" stroke="#184a63" stroke-width="0.3" stroke-linejoin="round"/>
<path d="M 298.50 358.50 L 298.50 373.00 L 299.00 373.00 L 299.00 361.50 L 300.50 360.50 L 302.50 362.00 L 309.50 372.50 L 311.00 373.00 L 311.00 358.50 L 310.50 358.50 L 310.50 368.50 L 309.00 369.50 L 305.00 365.50 L 305.00 364.50 L 304.00 364.00 L 301.00 359.00 Z" fill="#002a48" stroke="#002a48" stroke-width="0.3" stroke-linejoin="round"/>
</svg>